<svg width="585" height="146" viewBox="0 0 585 146" fill="none" xmlns="http://www.w3.org/2000/svg">
<path fill-rule="evenodd" clip-rule="evenodd" d="M0 38.8949L23.5737 101.276H57.4934L95.0746 0H63.2964L40.8444 72.8826L33.9935 50.9804L0 38.8949Z" transform="translate(40.0437 44.7243)" fill="white"/>
<path d="M72.5372 84.5576H36.8903L31.9854 101.276H0L38.0647 0H72.1917L110.256 101.276H77.5111L72.5372 84.5576ZM65.9743 62.6583L54.7828 26.2515L43.6605 62.6583H65.9743Z" transform="translate(106.138 44.7243)" fill="white"/>
<path d="M0 0H52.0195C63.3491 0 71.8233 2.69424 77.442 8.08271C83.1069 13.4712 85.9393 21.1394 85.9393 31.0874C85.9393 41.3116 82.8535 49.3022 76.6821 55.0592C70.5568 60.8161 61.1845 63.6945 48.5654 63.6945H31.4328V101.276H0V0ZM31.4328 43.1769H39.101C45.1342 43.1769 49.3713 42.1406 51.8123 40.0681C54.2532 37.9496 55.4737 35.2554 55.4737 31.9854C55.4737 28.8076 54.4144 26.1134 52.2958 23.9027C50.1773 21.6921 46.1935 20.5867 40.3445 20.5867H31.4328V43.1769Z" transform="translate(221.224 44.7243)" fill="white"/>
<path d="M0 0H83.8668V21.623H31.3637V37.7193H68.7066V58.3751H31.3637V78.3401H85.3866V101.276H0V0Z" transform="translate(313.293 44.7243)" fill="white"/>
<path d="M0 0H197L172.532 77H0L20.7038 12L0 0Z" transform="translate(388 56)" fill="#589017"/>
<path d="M0 0.488281H13.1445C15.7357 0.488281 17.8255 0.839844 19.4141 1.54297C21.0156 2.24609 22.3372 3.25521 23.3789 4.57031C24.4206 5.88542 25.1758 7.41536 25.6445 9.16016C26.1133 10.9049 26.3477 12.7539 26.3477 14.707C26.3477 17.7669 25.9961 20.1432 25.293 21.8359C24.6029 23.5156 23.6393 24.9284 22.4023 26.0742C21.1654 27.207 19.8372 27.9622 18.418 28.3398C16.4779 28.8607 14.7201 29.1211 13.1445 29.1211H0V0.488281ZM8.84766 6.97266V22.6172H11.0156C12.8646 22.6172 14.1797 22.4154 14.9609 22.0117C15.7422 21.5951 16.3542 20.8789 16.7969 19.8633C17.2396 18.8346 17.4609 17.1745 17.4609 14.8828C17.4609 11.849 16.9661 9.77214 15.9766 8.65234C14.987 7.53255 13.3464 6.97266 11.0547 6.97266H8.84766Z" transform="translate(420 80)" fill="white"/>
<path d="M28.9961 0.488281H52.707V6.60156H37.8633V11.1523H51.6328V16.9922H37.8633V22.6367H53.1367V29.1211H28.9961V0.488281Z" transform="translate(420 80)" fill="white"/>
<path d="M73.5391 24.3945H63.4609L62.0742 29.1211H53.0312L63.793 0.488281H73.4414L84.2031 29.1211H74.9453L73.5391 24.3945ZM71.6836 18.2031L68.5195 7.91016L65.375 18.2031H71.6836Z" transform="translate(420 80)" fill="white"/>
<path d="M85.0547 0.488281H93.9023V22.0703H107.711V29.1211H85.0547V0.488281Z" transform="translate(420 80)" fill="white"/>
<path d="M108.191 19.6484L116.609 19.1211C116.792 20.4883 117.163 21.5299 117.723 22.2461C118.634 23.4049 119.936 23.9844 121.629 23.9844C122.892 23.9844 123.862 23.6914 124.539 23.1055C125.229 22.5065 125.574 21.8164 125.574 21.0352C125.574 20.293 125.249 19.6289 124.598 19.043C123.947 18.457 122.436 17.9036 120.066 17.3828C116.186 16.5104 113.419 15.3516 111.766 13.9062C110.099 12.4609 109.266 10.6185 109.266 8.37891C109.266 6.90755 109.689 5.52083 110.535 4.21875C111.395 2.90365 112.677 1.875 114.383 1.13281C116.102 0.377604 118.452 0 121.434 0C125.092 0 127.879 0.683594 129.793 2.05078C131.72 3.40495 132.866 5.56641 133.23 8.53516L124.891 9.02344C124.669 7.73438 124.201 6.79688 123.484 6.21094C122.781 5.625 121.805 5.33203 120.555 5.33203C119.526 5.33203 118.751 5.55339 118.23 5.99609C117.71 6.42578 117.449 6.95312 117.449 7.57812C117.449 8.03385 117.664 8.44401 118.094 8.80859C118.51 9.1862 119.5 9.53776 121.062 9.86328C124.93 10.6966 127.697 11.543 129.363 12.4023C131.043 13.2487 132.26 14.3034 133.016 15.5664C133.784 16.8294 134.168 18.2422 134.168 19.8047C134.168 21.6406 133.66 23.3333 132.645 24.8828C131.629 26.4323 130.21 27.6107 128.387 28.418C126.564 29.2122 124.266 29.6094 121.492 29.6094C116.622 29.6094 113.25 28.6719 111.375 26.7969C109.5 24.9219 108.439 22.5391 108.191 19.6484Z" transform="translate(420 80)" fill="white"/>
<path d="M20 37.0618C20 56.3576 15.5228 72 10 72C4.47715 72 0 56.3576 0 37.0618C1.23929 17.7084 9.75853 -0.332064 10 0.00463995C10.2728 0.385003 18.5 17.7608 20 37.0618Z" transform="translate(36)" fill="#589017"/>
<path d="M14.9314 32.0266C14.9314 48.7009 11.5889 62.2181 7.46569 62.2181C3.3425 62.2181 0 48.7009 0 32.0266C0.925217 15.3026 7.28542 -0.28695 7.46569 0.00400957C7.66934 0.332697 13.8115 15.3478 14.9314 32.0266Z" transform="translate(87.4502 24.1091) rotate(55.068)" fill="#589017"/>
<path d="M12.4428 26.6888C12.4428 40.5841 9.6574 51.8485 6.22141 51.8485C2.78542 51.8485 0 40.5841 0 26.6888C0.771014 12.7521 6.07118 -0.239125 6.22141 0.00334131C6.39112 0.277247 11.5096 12.7898 12.4428 26.6888Z" transform="translate(92.3427 62.695) rotate(95.4056)" fill="#589017"/>
<path d="M7.46569 16.0133C7.46569 24.3505 5.79444 31.1091 3.73285 31.1091C1.67125 31.1091 0 24.3505 0 16.0133C0.462608 7.65129 3.64271 -0.143475 3.73285 0.00200479C3.83467 0.166348 6.90577 7.6739 7.46569 16.0133Z" transform="translate(70.8564 80.7012) rotate(122.399)" fill="#589017"/>
<path d="M14.9314 32.0266C14.9314 48.7009 11.5889 62.2181 7.46569 62.2181C3.3425 62.2181 0 48.7009 0 32.0266C0.925217 15.3026 7.28542 -0.28695 7.46569 0.00400957C7.66934 0.332697 13.8115 15.3478 14.9314 32.0266Z" transform="translate(4.5498 25.146) scale(-1 1) rotate(55.068)" fill="#589017"/>
<path d="M12.4428 26.6888C12.4428 40.5841 9.6574 51.8485 6.22141 51.8485C2.78542 51.8485 0 40.5841 0 26.6888C0.771014 12.7521 6.07118 -0.239125 6.22141 0.00334131C6.39112 0.277247 11.5096 12.7898 12.4428 26.6888Z" transform="translate(-0.342743 63.732) scale(1 -1) rotate(-84.5944)" fill="#589017"/>
<path d="M7.46569 16.0133C7.46569 24.3505 5.79444 31.1091 3.73285 31.1091C1.67125 31.1091 0 24.3505 0 16.0133C0.462608 7.65129 3.64271 -0.143475 3.73285 0.00200479C3.83467 0.166348 6.90577 7.6739 7.46569 16.0133Z" transform="translate(21.1436 81.7381) scale(1 -1) rotate(-57.6006)" fill="#589017"/>
</svg>
