<svg width="37" height="37" viewBox="0 0 37 37" fill="none" xmlns="http://www.w3.org/2000/svg">
<path d="M26.0417 22.9167H24.3958L23.8125 22.3542C25.8542 19.9792 27.0833 16.8958 27.0833 13.5417C27.0833 6.0625 21.0208 0 13.5417 0C6.0625 0 0 6.0625 0 13.5417C0 21.0208 6.0625 27.0833 13.5417 27.0833C16.8958 27.0833 19.9792 25.8542 22.3542 23.8125L22.9167 24.3958V26.0417L33.3333 36.4375L36.4375 33.3333L26.0417 22.9167V22.9167ZM13.5417 22.9167C8.35417 22.9167 4.16667 18.7292 4.16667 13.5417C4.16667 8.35417 8.35417 4.16667 13.5417 4.16667C18.7292 4.16667 22.9167 8.35417 22.9167 13.5417C22.9167 18.7292 18.7292 22.9167 13.5417 22.9167Z" transform="translate(0.25 0.25)" fill="#8AC149"/>
</svg>
